<svg width="270" height="40" viewBox="0 0 270 40" fill="none" xmlns="http://www.w3.org/2000/svg">
<path d="M5.15097 8.79702L5.2445 12.7077V36.4479H3V3.27605H4.02873L26.0528 28.2585C27.5492 30.0068 28.7026 31.4023 29.5131 32.4452C29.3884 30.9729 29.3261 29.286 29.3261 27.3843V3.5521H31.5706V36.7239H30.5418L8.09688 11.2815C6.5382 9.53315 5.54064 8.36761 5.10421 7.78485L5.15097 8.79702Z" fill="white"/>
<path d="M58.411 36.4479V3.5521H73.9354V5.48444H60.6555V17.5846H72.6729V19.4709H60.6555V34.5156H74.4498V36.4479H58.411Z" fill="white"/>
<path d="M120.469 33.2733C118.318 35.7578 115.045 37 110.65 37C106.254 37 102.965 35.7424 100.783 33.2273C98.6322 30.7122 97.5567 27.2769 97.5567 22.9215V3.5521H99.8012V22.9215C99.8012 31.0189 103.402 35.0677 110.603 35.0677C117.835 35.0677 121.451 31.0189 121.451 22.9215V3.5521H123.696V22.9215C123.696 27.3076 122.62 30.7582 120.469 33.2733Z" fill="white"/>
<path d="M150.145 36.4479V3.69012C153.107 3.47542 155.585 3.36807 157.58 3.36807C160.76 3.36807 163.378 4.18088 165.436 5.8065C167.493 7.40144 168.522 9.67118 168.522 12.6157C168.522 14.6094 167.93 16.465 166.745 18.1827C165.561 19.9003 164.236 21.2652 162.771 22.2774C163.924 23.8417 165.342 25.7127 167.026 27.8904C168.74 30.0374 169.847 31.387 170.346 31.9391C172.247 33.9328 174.398 35.0677 176.799 35.3437L176.752 36.816C174.85 36.7853 173.307 36.5092 172.123 35.9878C170.938 35.4357 169.8 34.6076 168.709 33.5034C167.649 32.3992 164.984 28.9639 160.713 23.1976C157.658 23.1976 154.884 23.1055 152.39 22.9215V36.4479H150.145ZM159.357 21.3572C160.729 21.3572 162.194 20.4677 163.752 18.6888C165.311 16.9098 166.09 14.8548 166.09 12.5237C166.09 10.1619 165.28 8.38295 163.659 7.18674C162.069 5.95986 159.949 5.34641 157.3 5.34641C155.897 5.34641 154.26 5.40776 152.39 5.53045V21.1272C154.884 21.2806 157.206 21.3572 159.357 21.3572Z" fill="white"/>
<path d="M198.084 32.0771C194.998 28.7952 193.455 24.7618 193.455 19.977C193.455 15.1922 194.998 11.1741 198.084 7.92287C201.201 4.64096 205.129 3 209.868 3C214.606 3 218.534 4.64096 221.651 7.92287C224.769 11.1741 226.327 15.1922 226.327 19.977C226.327 24.7618 224.769 28.7952 221.651 32.0771C218.534 35.359 214.606 37 209.868 37C205.129 37 201.201 35.359 198.084 32.0771ZM199.767 9.34912C197.18 12.2016 195.886 15.7442 195.886 19.977C195.886 24.2097 197.18 27.7677 199.767 30.6509C202.386 33.5341 205.753 34.9756 209.868 34.9756C214.014 34.9756 217.38 33.5341 219.968 30.6509C222.586 27.7677 223.896 24.2097 223.896 19.977C223.896 15.7442 222.586 12.2016 219.968 9.34912C217.38 6.46595 214.014 5.02436 209.868 5.02436C205.722 5.02436 202.355 6.46595 199.767 9.34912Z" fill="white"/>
<path d="M265.644 6.45061C263.368 5.49978 261.108 5.02436 258.864 5.02436C254.312 5.02436 252.037 6.68065 252.037 9.99323C252.037 11.4348 252.551 12.7844 253.58 14.0419C254.609 15.2688 255.855 16.373 257.321 17.3545C258.786 18.3054 260.251 19.2869 261.716 20.2991C263.181 21.3112 264.428 22.5228 265.457 23.9337C266.486 25.3446 267 26.8782 267 28.5345C267 31.3257 266.049 33.442 264.148 34.8836C262.246 36.2945 259.612 37 256.245 37C252.91 37 250.057 36.1565 247.688 34.4696L248.81 32.8133C251.055 34.2548 253.517 34.9756 256.198 34.9756C258.879 34.9756 260.937 34.4542 262.371 33.4114C263.805 32.3378 264.522 30.8042 264.522 28.8106C264.522 27.4303 264.007 26.1267 262.979 24.8999C261.95 23.6423 260.703 22.5228 259.238 21.5413C257.773 20.5291 256.307 19.5016 254.842 18.4587C253.377 17.4159 252.13 16.1737 251.102 14.7321C250.073 13.2905 249.558 11.7415 249.558 10.0853C249.558 7.90753 250.369 6.1899 251.99 4.93234C253.642 3.64411 255.855 3 258.63 3C261.436 3 264.039 3.5521 266.439 4.65629L265.644 6.45061Z" fill="white"/>
<path d="M5.15097 8.79702L5.2445 12.7077V36.4479H3V3.27605H4.02873L26.0528 28.2585C27.5492 30.0068 28.7026 31.4023 29.5131 32.4452C29.3884 30.9729 29.3261 29.286 29.3261 27.3843V3.5521H31.5706V36.7239H30.5418L8.09688 11.2815C6.5382 9.53315 5.54064 8.36761 5.10421 7.78485L5.15097 8.79702Z" stroke="#0C1E38" stroke-width="5" stroke-linejoin="bevel"/>
<path d="M58.411 36.4479V3.5521H73.9354V5.48444H60.6555V17.5846H72.6729V19.4709H60.6555V34.5156H74.4498V36.4479H58.411Z" stroke="#0C1E38" stroke-width="5" stroke-linejoin="bevel"/>
<path d="M120.469 33.2733C118.318 35.7578 115.045 37 110.65 37C106.254 37 102.965 35.7424 100.783 33.2273C98.6322 30.7122 97.5567 27.2769 97.5567 22.9215V3.5521H99.8012V22.9215C99.8012 31.0189 103.402 35.0677 110.603 35.0677C117.835 35.0677 121.451 31.0189 121.451 22.9215V3.5521H123.696V22.9215C123.696 27.3076 122.62 30.7582 120.469 33.2733Z" stroke="#0C1E38" stroke-width="5" stroke-linejoin="bevel"/>
<path d="M150.145 36.4479V3.69012C153.107 3.47542 155.585 3.36807 157.58 3.36807C160.76 3.36807 163.378 4.18088 165.436 5.8065C167.493 7.40144 168.522 9.67118 168.522 12.6157C168.522 14.6094 167.93 16.465 166.745 18.1827C165.561 19.9003 164.236 21.2652 162.771 22.2774C163.924 23.8417 165.342 25.7127 167.026 27.8904C168.74 30.0374 169.847 31.387 170.346 31.9391C172.247 33.9328 174.398 35.0677 176.799 35.3437L176.752 36.816C174.85 36.7853 173.307 36.5092 172.123 35.9878C170.938 35.4357 169.8 34.6076 168.709 33.5034C167.649 32.3992 164.984 28.9639 160.713 23.1976C157.658 23.1976 154.884 23.1055 152.39 22.9215V36.4479H150.145ZM159.357 21.3572C160.729 21.3572 162.194 20.4677 163.752 18.6888C165.311 16.9098 166.09 14.8548 166.09 12.5237C166.09 10.1619 165.28 8.38295 163.659 7.18674C162.069 5.95986 159.949 5.34641 157.3 5.34641C155.897 5.34641 154.26 5.40776 152.39 5.53045V21.1272C154.884 21.2806 157.206 21.3572 159.357 21.3572Z" stroke="#0C1E38" stroke-width="5" stroke-linejoin="bevel"/>
<path d="M198.084 32.0771C194.998 28.7952 193.455 24.7618 193.455 19.977C193.455 15.1922 194.998 11.1741 198.084 7.92287C201.201 4.64096 205.129 3 209.868 3C214.606 3 218.534 4.64096 221.651 7.92287C224.769 11.1741 226.327 15.1922 226.327 19.977C226.327 24.7618 224.769 28.7952 221.651 32.0771C218.534 35.359 214.606 37 209.868 37C205.129 37 201.201 35.359 198.084 32.0771ZM199.767 9.34912C197.18 12.2016 195.886 15.7442 195.886 19.977C195.886 24.2097 197.18 27.7677 199.767 30.6509C202.386 33.5341 205.753 34.9756 209.868 34.9756C214.014 34.9756 217.38 33.5341 219.968 30.6509C222.586 27.7677 223.896 24.2097 223.896 19.977C223.896 15.7442 222.586 12.2016 219.968 9.34912C217.38 6.46595 214.014 5.02436 209.868 5.02436C205.722 5.02436 202.355 6.46595 199.767 9.34912Z" stroke="#0C1E38" stroke-width="5" stroke-linejoin="bevel"/>
<path d="M265.644 6.45061C263.368 5.49978 261.108 5.02436 258.864 5.02436C254.312 5.02436 252.037 6.68065 252.037 9.99323C252.037 11.4348 252.551 12.7844 253.58 14.0419C254.609 15.2688 255.855 16.373 257.321 17.3545C258.786 18.3054 260.251 19.2869 261.716 20.2991C263.181 21.3112 264.428 22.5228 265.457 23.9337C266.486 25.3446 267 26.8782 267 28.5345C267 31.3257 266.049 33.442 264.148 34.8836C262.246 36.2945 259.612 37 256.245 37C252.91 37 250.057 36.1565 247.688 34.4696L248.81 32.8133C251.055 34.2548 253.517 34.9756 256.198 34.9756C258.879 34.9756 260.937 34.4542 262.371 33.4114C263.805 32.3378 264.522 30.8042 264.522 28.8106C264.522 27.4303 264.007 26.1267 262.979 24.8999C261.95 23.6423 260.703 22.5228 259.238 21.5413C257.773 20.5291 256.307 19.5016 254.842 18.4587C253.377 17.4159 252.13 16.1737 251.102 14.7321C250.073 13.2905 249.558 11.7415 249.558 10.0853C249.558 7.90753 250.369 6.1899 251.99 4.93234C253.642 3.64411 255.855 3 258.63 3C261.436 3 264.039 3.5521 266.439 4.65629L265.644 6.45061Z" stroke="#0C1E38" stroke-width="5" stroke-linejoin="bevel"/>
</svg>
