<svg width="414" height="62" viewBox="0 0 414 62" fill="none" xmlns="http://www.w3.org/2000/svg">
<path d="M8.29164 13.866L8.43476 19.8471V56.1556H5V5.4222H6.57427L40.2778 43.6306C42.5677 46.3045 44.3328 48.4389 45.5731 50.0338C45.3823 47.7821 45.2869 45.2021 45.2869 42.2936V5.84439H48.7216V56.5778H47.1473L12.7998 17.6658C10.4145 14.9919 8.88796 13.2093 8.22009 12.318L8.29164 13.866Z" fill="white"/>
<path d="M89.7956 56.1556V5.84439H113.553V8.79973H93.2304V27.3058H111.621V30.1908H93.2304V53.2003H114.34V56.1556H89.7956Z" fill="white"/>
<path d="M184.764 51.3004C181.472 55.1001 176.463 57 169.736 57C163.01 57 157.977 55.0767 154.638 51.23C151.346 47.3834 149.7 42.1295 149.7 35.4682V5.84439H153.135V35.4682C153.135 47.8525 158.645 54.0447 169.665 54.0447C180.732 54.0447 186.266 47.8525 186.266 35.4682V5.84439H189.701V35.4682C189.701 42.1764 188.055 47.4538 184.764 51.3004Z" fill="white"/>
<path d="M230.177 56.1556V6.05548C234.709 5.72711 238.501 5.56292 241.554 5.56292C246.42 5.56292 250.428 6.80605 253.576 9.29229C256.725 11.7316 258.299 15.203 258.299 19.7064C258.299 22.7555 257.392 25.5936 255.58 28.2206C253.767 30.8475 251.739 32.935 249.497 34.4831C251.262 36.8755 253.433 39.737 256.009 43.0677C258.633 46.3514 260.326 48.4154 261.09 49.2598C264 52.309 267.291 54.0447 270.965 54.4668L270.893 56.7185C267.983 56.6716 265.622 56.2494 263.809 55.452C261.996 54.6076 260.255 53.341 258.585 51.6522C256.963 49.9635 252.884 44.7095 246.349 35.8904C241.674 35.8904 237.428 35.7497 233.612 35.4682V56.1556H230.177ZM244.274 33.0758C246.373 33.0758 248.615 31.7154 251 28.9946C253.385 26.2738 254.578 23.1308 254.578 19.5656C254.578 15.9535 253.338 13.2327 250.857 11.4032C248.424 9.52684 245.18 8.58863 241.125 8.58863C238.978 8.58863 236.474 8.68245 233.612 8.87009V32.724C237.428 32.9585 240.982 33.0758 244.274 33.0758Z" fill="white"/>
<path d="M303.538 49.4709C298.815 44.4515 296.454 38.2828 296.454 30.9648C296.454 23.6468 298.815 17.5016 303.538 12.5291C308.308 7.5097 314.319 5 321.57 5C328.821 5 334.832 7.5097 339.603 12.5291C344.373 17.5016 346.758 23.6468 346.758 30.9648C346.758 38.2828 344.373 44.4515 339.603 49.4709C334.832 54.4903 328.821 57 321.57 57C314.319 57 308.308 54.4903 303.538 49.4709ZM306.114 14.7104C302.154 19.0731 300.175 24.4912 300.175 30.9648C300.175 37.4384 302.154 42.88 306.114 47.2896C310.121 51.6991 315.273 53.9039 321.57 53.9039C327.915 53.9039 333.067 51.6991 337.027 47.2896C341.034 42.88 343.037 37.4384 343.037 30.9648C343.037 24.4912 341.034 19.0731 337.027 14.7104C333.067 10.3009 327.915 8.09608 321.57 8.09608C315.225 8.09608 310.073 10.3009 306.114 14.7104Z" fill="white"/>
<path d="M406.925 10.2774C403.442 8.82319 399.984 8.09608 396.549 8.09608C389.584 8.09608 386.102 10.6292 386.102 15.6955C386.102 17.9003 386.889 19.9644 388.463 21.8877C390.037 23.7641 391.945 25.4529 394.188 26.954C396.43 28.4082 398.672 29.9093 400.914 31.4574C403.156 33.0054 405.064 34.8584 406.639 37.0162C408.213 39.1741 409 41.5196 409 44.0528C409 48.3216 407.545 51.5584 404.635 53.7632C401.725 55.9211 397.694 57 392.542 57C387.437 57 383.072 55.71 379.447 53.1299L381.164 50.5967C384.599 52.8015 388.368 53.9039 392.47 53.9039C396.573 53.9039 399.721 53.1064 401.916 51.5115C404.11 49.8696 405.207 47.5241 405.207 44.475C405.207 42.364 404.42 40.3703 402.846 38.4939C401.272 36.5706 399.364 34.8584 397.121 33.3572C394.879 31.8092 392.637 30.2377 390.395 28.6428C388.153 27.0478 386.245 25.1479 384.67 22.9432C383.096 20.7384 382.309 18.3694 382.309 15.8363C382.309 12.5056 383.549 9.87866 386.03 7.95534C388.558 5.98511 391.945 5 396.191 5C400.485 5 404.468 5.84438 408.141 7.53315L406.925 10.2774Z" fill="white"/>
<path d="M8.29164 13.866L8.43476 19.8471V56.1556H5V5.4222H6.57427L40.2778 43.6306C42.5677 46.3045 44.3328 48.4389 45.5731 50.0338C45.3823 47.7821 45.2869 45.2021 45.2869 42.2936V5.84439H48.7216V56.5778H47.1473L12.7998 17.6658C10.4145 14.9919 8.88796 13.2093 8.22009 12.318L8.29164 13.866Z" stroke="#041C38" stroke-width="10" stroke-linejoin="bevel"/>
<path d="M89.7956 56.1556V5.84439H113.553V8.79973H93.2304V27.3058H111.621V30.1908H93.2304V53.2003H114.34V56.1556H89.7956Z" stroke="#041C38" stroke-width="10" stroke-linejoin="bevel"/>
<path d="M184.764 51.3004C181.472 55.1001 176.463 57 169.736 57C163.01 57 157.977 55.0767 154.638 51.23C151.346 47.3834 149.7 42.1295 149.7 35.4682V5.84439H153.135V35.4682C153.135 47.8525 158.645 54.0447 169.665 54.0447C180.732 54.0447 186.266 47.8525 186.266 35.4682V5.84439H189.701V35.4682C189.701 42.1764 188.055 47.4538 184.764 51.3004Z" stroke="#041C38" stroke-width="10" stroke-linejoin="bevel"/>
<path d="M230.177 56.1556V6.05548C234.709 5.72711 238.501 5.56292 241.554 5.56292C246.42 5.56292 250.428 6.80605 253.576 9.29229C256.725 11.7316 258.299 15.203 258.299 19.7064C258.299 22.7555 257.392 25.5936 255.58 28.2206C253.767 30.8475 251.739 32.935 249.497 34.4831C251.262 36.8755 253.433 39.737 256.009 43.0677C258.633 46.3514 260.326 48.4154 261.09 49.2598C264 52.309 267.291 54.0447 270.965 54.4668L270.893 56.7185C267.983 56.6716 265.622 56.2494 263.809 55.452C261.996 54.6076 260.255 53.341 258.585 51.6522C256.963 49.9635 252.884 44.7095 246.349 35.8904C241.674 35.8904 237.428 35.7497 233.612 35.4682V56.1556H230.177ZM244.274 33.0758C246.373 33.0758 248.615 31.7154 251 28.9946C253.385 26.2738 254.578 23.1308 254.578 19.5656C254.578 15.9535 253.338 13.2327 250.857 11.4032C248.424 9.52684 245.18 8.58863 241.125 8.58863C238.978 8.58863 236.474 8.68245 233.612 8.87009V32.724C237.428 32.9585 240.982 33.0758 244.274 33.0758Z" stroke="#041C38" stroke-width="10" stroke-linejoin="bevel"/>
<path d="M303.538 49.4709C298.815 44.4515 296.454 38.2828 296.454 30.9648C296.454 23.6468 298.815 17.5016 303.538 12.5291C308.308 7.5097 314.319 5 321.57 5C328.821 5 334.832 7.5097 339.603 12.5291C344.373 17.5016 346.758 23.6468 346.758 30.9648C346.758 38.2828 344.373 44.4515 339.603 49.4709C334.832 54.4903 328.821 57 321.57 57C314.319 57 308.308 54.4903 303.538 49.4709ZM306.114 14.7104C302.154 19.0731 300.175 24.4912 300.175 30.9648C300.175 37.4384 302.154 42.88 306.114 47.2896C310.121 51.6991 315.273 53.9039 321.57 53.9039C327.915 53.9039 333.067 51.6991 337.027 47.2896C341.034 42.88 343.037 37.4384 343.037 30.9648C343.037 24.4912 341.034 19.0731 337.027 14.7104C333.067 10.3009 327.915 8.09608 321.57 8.09608C315.225 8.09608 310.073 10.3009 306.114 14.7104Z" stroke="#041C38" stroke-width="10" stroke-linejoin="bevel"/>
<path d="M406.925 10.2774C403.442 8.82319 399.984 8.09608 396.549 8.09608C389.584 8.09608 386.102 10.6292 386.102 15.6955C386.102 17.9003 386.889 19.9644 388.463 21.8877C390.037 23.7641 391.945 25.4529 394.188 26.954C396.43 28.4082 398.672 29.9093 400.914 31.4574C403.156 33.0054 405.064 34.8584 406.639 37.0162C408.213 39.1741 409 41.5196 409 44.0528C409 48.3216 407.545 51.5584 404.635 53.7632C401.725 55.9211 397.694 57 392.542 57C387.437 57 383.072 55.71 379.447 53.1299L381.164 50.5967C384.599 52.8015 388.368 53.9039 392.47 53.9039C396.573 53.9039 399.721 53.1064 401.916 51.5115C404.11 49.8696 405.207 47.5241 405.207 44.475C405.207 42.364 404.42 40.3703 402.846 38.4939C401.272 36.5706 399.364 34.8584 397.121 33.3572C394.879 31.8092 392.637 30.2377 390.395 28.6428C388.153 27.0478 386.245 25.1479 384.67 22.9432C383.096 20.7384 382.309 18.3694 382.309 15.8363C382.309 12.5056 383.549 9.87866 386.03 7.95534C388.558 5.98511 391.945 5 396.191 5C400.485 5 404.468 5.84438 408.141 7.53315L406.925 10.2774Z" stroke="#041C38" stroke-width="10" stroke-linejoin="bevel"/>
</svg>