<svg width="761" height="122" viewBox="0 0 761 122" fill="none" xmlns="http://www.w3.org/2000/svg">
<path d="M16.0374 27.3911L16.2999 39.1231V110.344H10V10.8282H12.8875L74.7051 85.7754C78.9051 91.0203 82.1425 95.207 84.4175 98.3356C84.0675 93.9188 83.8925 88.8579 83.8925 83.1529V11.6563H90.1924V111.172H87.3049L24.306 34.8444C19.9311 29.5995 17.1311 26.1028 15.9061 24.3545L16.0374 27.3911Z" fill="white"/>
<path d="M165.529 110.344V11.6563H209.103V17.4533H171.828V53.7537H205.559V59.4127H171.828V104.547H210.547V110.344H165.529Z" fill="white"/>
<path d="M339.715 100.82C333.677 108.273 324.49 112 312.153 112C299.815 112 290.584 108.227 284.46 100.682C278.422 93.1367 275.403 82.8308 275.403 69.7645V11.6563H281.703V69.7645C281.703 94.0568 291.809 106.203 312.022 106.203C332.321 106.203 342.471 94.0568 342.471 69.7645V11.6563H348.771V69.7645C348.771 82.9229 345.752 93.2747 339.715 100.82Z" fill="white"/>
<path d="M423.01 110.344V12.0704C431.322 11.4263 438.278 11.1042 443.878 11.1042C452.803 11.1042 460.153 13.5426 465.928 18.4195C471.703 23.2043 474.59 30.0135 474.59 38.8471C474.59 44.8281 472.928 50.3951 469.603 55.548C466.278 60.7009 462.559 64.7957 458.447 67.8322C461.684 72.525 465.665 78.138 470.39 84.6712C475.203 91.1123 478.309 95.161 479.709 96.8173C485.046 102.798 491.084 106.203 497.821 107.031L497.69 111.448C492.352 111.356 488.021 110.528 484.696 108.963C481.371 107.307 478.178 104.823 475.115 101.51C472.14 98.1976 464.659 87.8917 452.672 70.5927C444.097 70.5927 436.31 70.3166 429.31 69.7645V110.344H423.01ZM448.866 65.0717C452.716 65.0717 456.828 62.4032 461.203 57.0663C465.578 51.7294 467.765 45.5643 467.765 38.571C467.765 31.4858 465.49 26.1489 460.94 22.5602C456.478 18.8796 450.528 17.0392 443.091 17.0392C439.153 17.0392 434.56 17.2233 429.31 17.5913V64.3816C436.31 64.8417 442.828 65.0717 448.866 65.0717Z" fill="white"/>
<path d="M557.566 97.2314C548.903 87.3857 544.572 75.2855 544.572 60.931C544.572 46.5765 548.903 34.5223 557.566 24.7686C566.315 14.9229 577.34 10 590.64 10C603.94 10 614.964 14.9229 623.714 24.7686C632.464 34.5223 636.839 46.5765 636.839 60.931C636.839 75.2855 632.464 87.3857 623.714 97.2314C614.964 107.077 603.94 112 590.64 112C577.34 112 566.315 107.077 557.566 97.2314ZM562.29 29.0474C555.028 37.6049 551.397 48.2327 551.397 60.931C551.397 73.6292 555.028 84.3031 562.29 92.9526C569.64 101.602 579.09 105.927 590.64 105.927C602.277 105.927 611.727 101.602 618.989 92.9526C626.339 84.3031 630.014 73.6292 630.014 60.931C630.014 48.2327 626.339 37.6049 618.989 29.0474C611.727 20.3978 602.277 16.0731 590.64 16.0731C579.003 16.0731 569.553 20.3978 562.29 29.0474Z" fill="white"/>
<path d="M747.194 20.3518C740.806 17.4993 734.463 16.0731 728.163 16.0731C715.388 16.0731 709.001 21.042 709.001 30.9797C709.001 35.3045 710.444 39.3532 713.332 43.1259C716.219 46.8065 719.719 50.1191 723.832 53.0636C727.944 55.9161 732.057 58.8606 736.169 61.8972C740.281 64.9337 743.781 68.5683 746.669 72.8011C749.556 77.0338 751 81.6346 751 86.6035C751 94.977 748.331 101.326 742.994 105.651C737.656 109.884 730.263 112 720.813 112C711.451 112 703.445 109.47 696.795 104.409L699.945 99.4398C706.245 103.765 713.157 105.927 720.682 105.927C728.207 105.927 733.982 104.363 738.007 101.234C742.031 98.0135 744.044 93.4127 744.044 87.4317C744.044 83.2909 742.6 79.3802 739.713 75.6996C736.825 71.9269 733.325 68.5683 729.213 65.6238C725.101 62.5873 720.988 59.5047 716.876 56.3762C712.763 53.2476 709.263 49.521 706.376 45.1962C703.488 40.8714 702.045 36.2246 702.045 31.2558C702.045 24.7226 704.32 19.5697 708.87 15.797C713.507 11.9323 719.719 10 727.507 10C735.382 10 742.688 11.6563 749.425 14.9689L747.194 20.3518Z" fill="white"/>
<path d="M16.0374 27.3911L16.2999 39.1231V110.344H10V10.8282H12.8875L74.7051 85.7754C78.9051 91.0203 82.1425 95.207 84.4175 98.3356C84.0675 93.9188 83.8925 88.8579 83.8925 83.1529V11.6563H90.1924V111.172H87.3049L24.306 34.8444C19.9311 29.5995 17.1311 26.1028 15.9061 24.3545L16.0374 27.3911Z" stroke="white" stroke-width="20" stroke-linejoin="bevel"/>
<path d="M165.529 110.344V11.6563H209.103V17.4533H171.828V53.7537H205.559V59.4127H171.828V104.547H210.547V110.344H165.529Z" stroke="white" stroke-width="20" stroke-linejoin="bevel"/>
<path d="M339.715 100.82C333.677 108.273 324.49 112 312.153 112C299.815 112 290.584 108.227 284.46 100.682C278.422 93.1367 275.403 82.8308 275.403 69.7645V11.6563H281.703V69.7645C281.703 94.0568 291.809 106.203 312.022 106.203C332.321 106.203 342.471 94.0568 342.471 69.7645V11.6563H348.771V69.7645C348.771 82.9229 345.752 93.2747 339.715 100.82Z" stroke="white" stroke-width="20" stroke-linejoin="bevel"/>
<path d="M423.01 110.344V12.0704C431.322 11.4263 438.278 11.1042 443.878 11.1042C452.803 11.1042 460.153 13.5426 465.928 18.4195C471.703 23.2043 474.59 30.0135 474.59 38.8471C474.59 44.8281 472.928 50.3951 469.603 55.548C466.278 60.7009 462.559 64.7957 458.447 67.8322C461.684 72.525 465.665 78.138 470.39 84.6712C475.203 91.1123 478.309 95.161 479.709 96.8173C485.046 102.798 491.084 106.203 497.821 107.031L497.69 111.448C492.352 111.356 488.021 110.528 484.696 108.963C481.371 107.307 478.178 104.823 475.115 101.51C472.14 98.1976 464.659 87.8917 452.672 70.5927C444.097 70.5927 436.31 70.3166 429.31 69.7645V110.344H423.01ZM448.866 65.0717C452.716 65.0717 456.828 62.4032 461.203 57.0663C465.578 51.7294 467.765 45.5643 467.765 38.571C467.765 31.4858 465.49 26.1489 460.94 22.5602C456.478 18.8796 450.528 17.0392 443.091 17.0392C439.153 17.0392 434.56 17.2233 429.31 17.5913V64.3816C436.31 64.8417 442.828 65.0717 448.866 65.0717Z" stroke="white" stroke-width="20" stroke-linejoin="bevel"/>
<path d="M557.566 97.2314C548.903 87.3857 544.572 75.2855 544.572 60.931C544.572 46.5765 548.903 34.5223 557.566 24.7686C566.315 14.9229 577.34 10 590.64 10C603.94 10 614.964 14.9229 623.714 24.7686C632.464 34.5223 636.839 46.5765 636.839 60.931C636.839 75.2855 632.464 87.3857 623.714 97.2314C614.964 107.077 603.94 112 590.64 112C577.34 112 566.315 107.077 557.566 97.2314ZM562.29 29.0474C555.028 37.6049 551.397 48.2327 551.397 60.931C551.397 73.6292 555.028 84.3031 562.29 92.9526C569.64 101.602 579.09 105.927 590.64 105.927C602.277 105.927 611.727 101.602 618.989 92.9526C626.339 84.3031 630.014 73.6292 630.014 60.931C630.014 48.2327 626.339 37.6049 618.989 29.0474C611.727 20.3978 602.277 16.0731 590.64 16.0731C579.003 16.0731 569.553 20.3978 562.29 29.0474Z" stroke="white" stroke-width="20" stroke-linejoin="bevel"/>
<path d="M747.194 20.3518C740.806 17.4993 734.463 16.0731 728.163 16.0731C715.388 16.0731 709.001 21.042 709.001 30.9797C709.001 35.3045 710.444 39.3532 713.332 43.1259C716.219 46.8065 719.719 50.1191 723.832 53.0636C727.944 55.9161 732.057 58.8606 736.169 61.8972C740.281 64.9337 743.781 68.5683 746.669 72.8011C749.556 77.0338 751 81.6346 751 86.6035C751 94.977 748.331 101.326 742.994 105.651C737.656 109.884 730.263 112 720.813 112C711.451 112 703.445 109.47 696.795 104.409L699.945 99.4398C706.245 103.765 713.157 105.927 720.682 105.927C728.207 105.927 733.982 104.363 738.007 101.234C742.031 98.0135 744.044 93.4127 744.044 87.4317C744.044 83.2909 742.6 79.3802 739.713 75.6996C736.825 71.9269 733.325 68.5683 729.213 65.6238C725.101 62.5873 720.988 59.5047 716.876 56.3762C712.763 53.2476 709.263 49.521 706.376 45.1962C703.488 40.8714 702.045 36.2246 702.045 31.2558C702.045 24.7226 704.32 19.5697 708.87 15.797C713.507 11.9323 719.719 10 727.507 10C735.382 10 742.688 11.6563 749.425 14.9689L747.194 20.3518Z" stroke="white" stroke-width="20" stroke-linejoin="bevel"/>
</svg>